{"title":"2 Fast 2 Furious DVDrip Nl Subs Nlt Release by Zero Yuy","uid":4818622,"size":1037410322,"categoryP":"video","categoryS":"movies","magnet":"?xt=urn:btih:1002df534c1ad7699fbe5cf70f4458d47ed73f10&amp;dn=2+Fast+2+Furious+DVDrip+Nl+Subs+Nlt+Release+by+Zero+Yuy&amp;tr=udp%3A%2F%2Ftracker.openbittorrent.com%3A80&amp;tr=udp%3A%2F%2Fopen.demonii.com%3A1337&amp;tr=udp%3A%2F%2Ftracker.coppersurfer.tk%3A6969&amp;tr=udp%3A%2F%2Fexodus.desync.com%3A6969","seeders":6,"leechers":1,"uploader":"zeroyuy","files":-1,"time":1238655108,"description":"Brian O'Conner has left LA due to his illegal actions from the first movie and now soars the streets of Miami making money here and there by street racing. Watched by Customs Agent Monica Fuentes, Brian is caught by the police and is given a deal by Agent Markham and Bilkins to go undercover and try to bring down drug lord Carter Verone in exchange for his criminal record to be erased. Brian agrees but only if he is given permission to choose his partner. Brian heads home to Barstow, California where he recruits an old friend Roman Pearce to help him. Pearce agrees but only for the same deal Brian was offered. With the help of Monica, Brian and Rome work together to take down Verone.\n\nImdb link:  &lt;a href=&quot;\nhttp://www.imdb.com/title/tt0322259&quot; rel=&quot;nofollow&quot; target=&quot;_NEW&quot;&gt;\nhttp://www.imdb.com/title/tt0322259&lt;/a&gt;\n\nRipping info:\n\nGeneral\nFormat : AVI\nFormat/Info : Audio Video Interleave\nFile size : 989 MiB\nDuration : 1h 43mn\nOverall bit rate : 1 341 Kbps\nWriting application : Lavf51.12.1\n\nVideo\nFormat : xvid\nCodec ID : xvid\nDuration : 1h 43mn\nBit rate : 1 200 Kbps\nWidth : 720 pixels\nHeight : 576 pixels\nDisplay aspect ratio : 5/4\nFrame rate : 25.000 fps\nStandard : PAL\nResolution : 24 bits\nBits/(Pixel*Frame) : 0.116\nStream size : 885 MiB (89%)\n\nAudio\nFormat : MPEG Audio\nFormat version : Version 1\nFormat profile : Layer 3\nCodec ID : 55\nCodec ID/Hint : MP3\nDuration : 1h 43mn\nBit rate mode : Constant\nBit rate : 128 Kbps\nChannel(s) : 2 channels\nSampling rate : 48.0 KHz\nResolution : 16 bits\nStream size : 94.5 MiB (10%)\nAlignment : Aligned on interleaves\nInterleave, duration : 24 ms (0.60 video frame)\nInterleave, preload duration : 24 ms\n\nBrought to you by Nlt Release @\n &lt;a href=&quot;\nhttp://nlt.ons-forum.nl&quot; rel=&quot;nofollow&quot; target=&quot;_NEW&quot;&gt;\nhttp://nlt.ons-forum.nl&lt;/a&gt;","torrent":{"xt":"urn:btih:1002df534c1ad7699fbe5cf70f4458d47ed73f10","amp;dn":"2+Fast+2+Furious+DVDrip+Nl+Subs+Nlt+Release+by+Zero+Yuy","amp;tr":["udp%3A%2F%2Ftracker.openbittorrent.com%3A80","udp%3A%2F%2Fopen.demonii.com%3A1337","udp%3A%2F%2Ftracker.coppersurfer.tk%3A6969","udp%3A%2F%2Fexodus.desync.com%3A6969"],"infoHash":"1002df534c1ad7699fbe5cf70f4458d47ed73f10","infoHashBuffer":{"type":"Buffer","data":[16,2,223,83,76,26,215,105,159,190,92,247,15,68,88,212,126,215,63,16]},"announce":[],"urlList":[]}}